<?xml version="1.0" ?><svg height="32" id="svg2" overflow="visible" style="fill-rule:evenodd;stroke-width:0.50099999;stroke-linejoin:bevel;overflow:visible" version="1.1" viewBox="0 0 25.600005 25.600001" width="32" xmlns="http://www.w3.org/2000/svg" xmlns:cc="http://creativecommons.org/ns#" xmlns:dc="http://purl.org/dc/elements/1.1/" xmlns:inkscape="http://www.inkscape.org/namespaces/inkscape" xmlns:rdf="http://www.w3.org/1999/02/22-rdf-syntax-ns#" xmlns:sodipodi="http://sodipodi.sourceforge.net/DTD/sodipodi-0.dtd" xmlns:svg="http://www.w3.org/2000/svg" xmlns:xlink="http://www.w3.org/1999/xlink"><script id="script3301" xlink:href=""/><script id="script3299" xlink:href=""/><defs id="defs4"><marker id="DefaultArrow2" markerHeight="1" markerUnits="strokeWidth" markerWidth="1" orient="auto" overflow="visible" style="overflow:visible" viewBox="0 0 1 1"><g id="g7" transform="scale(0.00925926,0.00925926)"><path d="M -9,54 -9,-54 117,0 z" id="path9"/></g></marker><marker id="DefaultArrow3" markerHeight="1" markerUnits="strokeWidth" markerWidth="1" orient="auto" overflow="visible" style="overflow:visible" viewBox="0 0 1 1"><g id="g12" transform="scale(0.00925926,0.00925926)"><path d="M -27,54 -9,0 -27,-54 135,0 z" id="path14"/></g></marker><marker id="DefaultArrow4" markerHeight="1" markerUnits="strokeWidth" markerWidth="1" orient="auto" overflow="visible" style="overflow:visible" viewBox="0 0 1 1"><g id="g17" transform="scale(0.00925926,0.00925926)"><path d="M -9,0 -9,-45 C -9,-51.708 2.808,-56.58 9,-54 L 117,-9 C 120.916,-7.369 126,-4.242 126,0 126,4.242 120.916,7.369 117,9 L 9,54 C 2.808,56.58 -9,51.708 -9,45 z" id="path19"/></g></marker><marker id="DefaultArrow5" markerHeight="1" markerUnits="strokeWidth" markerWidth="1" orient="auto" overflow="visible" style="overflow:visible" viewBox="0 0 1 1"><g id="g22" transform="scale(0.00925926,0.00925926)"><path d="M -54,0 C -54,29.807 -29.807,54 0,54 29.807,54 54,29.807 54,0 54,-29.807 29.807,-54 0,-54 -29.807,-54 -54,-29.807 -54,0 z" id="path24"/></g></marker><marker id="DefaultArrow6" markerHeight="1" markerUnits="strokeWidth" markerWidth="1" orient="auto" overflow="visible" style="overflow:visible" viewBox="0 0 1 1"><g id="g27" transform="scale(0.00925926,0.00925926)"><path d="M -63,0 0,63 63,0 0,-63 z" id="path29"/></g></marker><marker id="DefaultArrow7" markerHeight="1" markerUnits="strokeWidth" markerWidth="1" orient="auto" overflow="visible" style="overflow:visible" viewBox="0 0 1 1"><g id="g32" transform="scale(0.00925926,0.00925926)"><path d="M 18,-54 108,-54 63,0 108,54 18,54 -36,0 z" id="path34"/></g></marker><marker id="DefaultArrow8" markerHeight="1" markerUnits="strokeWidth" markerWidth="1" orient="auto" overflow="visible" style="overflow:visible" viewBox="0 0 1 1"><g id="g37" transform="scale(0.00925926,0.00925926)"><path d="M -36,0 18,-54 54,-54 18,-18 27,-18 63,-54 99,-54 63,-18 72,-18 108,-54 144,-54 90,0 144,54 108,54 72,18 63,18 99,54 63,54 27,18 18,18 54,54 18,54 z" id="path39"/></g></marker><marker id="DefaultArrow9" markerHeight="1" markerUnits="strokeWidth" markerWidth="1" orient="auto" overflow="visible" style="overflow:visible" viewBox="0 0 1 1"><g id="g42" transform="scale(0.00925926,0.00925926)"><path d="M 0,45 -45,0 0,-45 45,0 z M 0,63 -63,0 0,-63 63,0 z" id="path44"/></g></marker><filter color-interpolation-filters="sRGB" id="StainedFilter"><feBlend id="feBlend47" in="SourceGraphic" in2="BackgroundImage" mode="multiply" result="blend"/><feComposite id="feComposite49" in="blend" in2="SourceAlpha" operator="in" result="comp"/></filter><filter color-interpolation-filters="sRGB" id="BleachFilter"><feBlend id="feBlend52" in="SourceGraphic" in2="BackgroundImage" mode="screen" result="blend"/><feComposite id="feComposite54" in="blend" in2="SourceAlpha" operator="in" result="comp"/></filter><filter color-interpolation-filters="sRGB" id="InvertTransparencyBitmapFilter"><feComponentTransfer id="feComponentTransfer57"><feFuncR amplitude="1.055" exponent=".416666666" id="feFuncR59" offset="-0.055" type="gamma"/><feFuncG amplitude="1.055" exponent=".416666666" id="feFuncG61" offset="-0.055" type="gamma"/><feFuncB amplitude="1.055" exponent=".416666666" id="feFuncB63" offset="-0.055" type="gamma"/></feComponentTransfer><feComponentTransfer id="feComponentTransfer65"><feFuncR id="feFuncR67" intercept="1" slope="-1" type="linear"/><feFuncG id="feFuncG69" intercept="1" slope="-1" type="linear"/><feFuncB id="feFuncB71" intercept="1" slope="-1" type="linear"/><feFuncA id="feFuncA73" intercept="0" slope="1" type="linear"/></feComponentTransfer><feComponentTransfer id="feComponentTransfer75"><feFuncR amplitude="1" exponent="2.4" id="feFuncR77" offset="0" type="gamma"/><feFuncG amplitude="1" exponent="2.4" id="feFuncG79" offset="0" type="gamma"/><feFuncB amplitude="1" exponent="2.4" id="feFuncB81" offset="0" type="gamma"/></feComponentTransfer></filter><radialGradient cx="0" cy="0" gradientTransform="matrix(0,-1,0.886054,0,172.174,122.358)" gradientUnits="userSpaceOnUse" id="RadialGradient" r="237.42799"><stop id="stop84" offset="0" stop-color="#473600"/><stop id="stop86" offset="0.792135000228882" stop-color="#3d2f00"/><stop id="stop88" offset="0.990000009536743" stop-color="#3a2c00"/><stop id="stop90" offset="1" stop-color="#3a2c00"/></radialGradient><radialGradient cx="0" cy="0" gradientTransform="matrix(0,-1,0.886054,0,170.916,119.88)" gradientUnits="userSpaceOnUse" id="RadialGradient_1" r="237.42799"><stop id="stop93" offset="0" stop-color="#553e00"/><stop id="stop95" offset="0.792135000228882" stop-color="#403200"/><stop id="stop97" offset="0.990000009536743" stop-color="#3b2b00"/><stop id="stop99" offset="1" stop-color="#3b2b00"/></radialGradient><radialGradient cx="0" cy="0" gradientTransform="matrix(0,-1,0.886054,0,169.66,117.403)" gradientUnits="userSpaceOnUse" id="RadialGradient_2" r="237.42799"><stop id="stop102" offset="0" stop-color="#634700"/><stop id="stop104" offset="0.792135000228882" stop-color="#443400"/><stop id="stop106" offset="0.990000009536743" stop-color="#3c2a00"/><stop id="stop108" offset="1" stop-color="#3c2a00"/></radialGradient><radialGradient cx="0" cy="0" gradientTransform="matrix(0,-1,0.886054,0,168.403,114.925)" gradientUnits="userSpaceOnUse" id="RadialGradient_3" r="237.42799"><stop id="stop111" offset="0" stop-color="#724f00"/><stop id="stop113" offset="0.792135000228882" stop-color="#473600"/><stop id="stop115" offset="0.990000009536743" stop-color="#3c2900"/><stop id="stop117" offset="1" stop-color="#3c2900"/></radialGradient><radialGradient cx="0" cy="0" gradientTransform="matrix(0,-1,0.886054,0,167.146,112.448)" gradientUnits="userSpaceOnUse" id="RadialGradient_4" r="237.42799"><stop id="stop120" offset="0" stop-color="#805800"/><stop id="stop122" offset="0.792135000228882" stop-color="#4b3800"/><stop id="stop124" offset="0.990000009536743" stop-color="#3d2800"/><stop id="stop126" offset="1" stop-color="#3d2800"/></radialGradient><radialGradient cx="0" cy="0" gradientTransform="matrix(0,-1,0.886054,0,165.889,109.97)" gradientUnits="userSpaceOnUse" id="RadialGradient_5" r="237.42799"><stop id="stop129" offset="0" stop-color="#8e6000"/><stop id="stop131" offset="0.792135000228882" stop-color="#4e3b00"/><stop id="stop133" offset="0.990000009536743" stop-color="#3e2700"/><stop id="stop135" offset="1" stop-color="#3e2700"/></radialGradient><radialGradient cx="0" cy="0" gradientTransform="matrix(0,-1,0.886054,0,164.632,107.493)" gradientUnits="userSpaceOnUse" id="RadialGradient_6" r="237.42799"><stop id="stop138" offset="0" stop-color="#9c6900"/><stop id="stop140" offset="0.792135000228882" stop-color="#523d00"/><stop id="stop142" offset="0.990000009536743" stop-color="#3f2600"/><stop id="stop144" offset="1" stop-color="#3f2600"/></radialGradient><linearGradient gradientTransform="translate(218.601,165.399)" gradientUnits="userSpaceOnUse" id="LinearGradient" x1="0" x2="42.75" y1="0" y2="36.75"><stop id="stop147" offset="0" stop-color="#5c5c5c"/><stop id="stop149" offset="1" stop-color="#000000"/></linearGradient><linearGradient gradientTransform="translate(181.122,157.792)" gradientUnits="userSpaceOnUse" id="LinearGradient_1" x1="0" x2="-9.6719999" y1="0" y2="-141.858"><stop id="stop152" offset="0" stop-color="#ffffff"/><stop id="stop154" offset="1" stop-color="#cfd1d2"/></linearGradient><linearGradient gradientTransform="translate(259.851,172.899)" gradientUnits="userSpaceOnUse" id="LinearGradient_2" x1="0" x2="69.75" y1="0" y2="-189.75"><stop id="stop157" offset="0" stop-color="#b5b5b5"/><stop id="stop159" offset="1" stop-color="#000000"/></linearGradient><linearGradient gradientTransform="translate(204.11,87.059)" gradientUnits="userSpaceOnUse" id="LinearGradient_3" x1="0" x2="-51.527" y1="0" y2="-64.410004"><stop id="stop162" offset="0" stop-color="#df9000"/><stop id="stop164" offset="0.730337023735046" stop-color="#7f5200"/><stop id="stop166" offset="0.990000009536743" stop-color="#3f2600"/><stop id="stop168" offset="1" stop-color="#3f2600"/></linearGradient><linearGradient gradientTransform="translate(199.945,96.333)" gradientUnits="userSpaceOnUse" id="LinearGradient_4" x1="0" x2="19.041" y1="0" y2="85.190002"><stop id="stop171" offset="0" stop-color="#ba7d00"/><stop id="stop173" offset="0.792135000228882" stop-color="#7f5200"/><stop id="stop175" offset="0.990000009536743" stop-color="#3f2600"/><stop id="stop177" offset="1" stop-color="#3f2600"/></linearGradient><linearGradient gradientTransform="translate(129.134,111.014)" gradientUnits="userSpaceOnUse" id="LinearGradient_5" x1="0" x2="-1.007" y1="0" y2="-63.535999"><stop id="stop180" offset="0" stop-color="#df9000"/><stop id="stop182" offset="0.792135000228882" stop-color="#7f5200"/><stop id="stop184" offset="0.990000009536743" stop-color="#3f2600"/><stop id="stop186" offset="1" stop-color="#3f2600"/></linearGradient><linearGradient gradientTransform="translate(129.286,104.867)" gradientUnits="userSpaceOnUse" id="LinearGradient_6" x1="0" x2="15.098" y1="0" y2="58.375"><stop id="stop189" offset="0" stop-color="#df9000"/><stop id="stop191" offset="0.792135000228882" stop-color="#7f5200"/><stop id="stop193" offset="0.990000009536743" stop-color="#3f2600"/><stop id="stop195" offset="1" stop-color="#3f2600"/></linearGradient><radialGradient cx="0" cy="0" gradientTransform="matrix(0.69735527,-0.71672563,1.2319152,1.1986212,183.351,196.899)" gradientUnits="userSpaceOnUse" id="RadialGradient_7" r="38.716999"><stop id="stop198" offset="0" stop-color="#6b4c29"/><stop id="stop200" offset="1" stop-color="#a57348"/></radialGradient><radialGradient cx="0" cy="0" gradientTransform="matrix(0,-1,0.973942,0,134.346,314.993)" gradientUnits="userSpaceOnUse" id="RadialGradient_8" r="120.999"><stop id="stop203" offset="0" stop-color="#e0bf9e"/><stop id="stop205" offset="1.68539006263018E-02" stop-color="#e0bf9e"/><stop id="stop207" offset="0.202246993780136" stop-color="#e6b891"/><stop id="stop209" offset="1" stop-color="#7b5d39"/></radialGradient><radialGradient cx="0" cy="0" gradientTransform="matrix(-0.01429027,-0.99989789,1.2061368,-0.01723778,146.601,370.899)" gradientUnits="userSpaceOnUse" id="RadialGradient_9" r="87.054001"><stop id="stop212" offset="0" stop-color="#9a9a9a"/><stop id="stop214" offset="1" stop-color="#313131"/></radialGradient><linearGradient gradientTransform="translate(213.351,257.649)" gradientUnits="userSpaceOnUse" id="LinearGradient_7" x1="0" x2="-54" y1="0" y2="-87"><stop id="stop217" offset="0" stop-color="#484848"/><stop id="stop219" offset="1" stop-color="#000000"/></linearGradient><linearGradient gradientTransform="translate(133.101,343.149)" gradientUnits="userSpaceOnUse" id="LinearGradient_8" x1="0" x2="10.5" y1="0" y2="-85.5"><stop id="stop222" offset="0" stop-color="#8d8d8d"/><stop id="stop224" offset="1" stop-color="#000000"/></linearGradient><linearGradient gradientTransform="translate(239.24,380.259)" gradientUnits="userSpaceOnUse" id="LinearGradient_9" x1="0" x2="3.5999999" y1="0" y2="-129"><stop id="stop227" offset="0" stop-color="#ffffff"/><stop id="stop229" offset="1" stop-color="#000000"/></linearGradient><linearGradient gradientTransform="translate(115.007,352.336)" gradientUnits="userSpaceOnUse" id="LinearGradient_10" x1="0" x2="108" y1="0" y2="-33.75"><stop id="stop232" offset="0" stop-color="#ffffff"/><stop id="stop234" offset="1" stop-color="#000000"/></linearGradient><linearGradient gradientTransform="translate(226.61,87.059)" gradientUnits="userSpaceOnUse" id="LinearGradient_11" x1="0" x2="-51.527" y1="0" y2="-64.410004"><stop id="stop237" offset="0" stop-color="#df9000"/><stop id="stop239" offset="0.730337023735046" stop-color="#7f5200"/><stop id="stop241" offset="0.990000009536743" stop-color="#3f2600"/><stop id="stop243" offset="1" stop-color="#3f2600"/></linearGradient></defs><g id="g3191" transform="matrix(0.64050449,0,0,0.64031522,0,25.600003)"><path d="M 0,-3.651992 0,-36.328324 C 0,-38.342584 1.6353097,-39.980316 3.6503044,-39.980316 L 36.318198,-39.980316 C 38.331527,-39.980316 39.968502,-38.342584 39.968502,-36.328324 L 39.968502,-3.651992 C 39.968502,-1.6360658 38.331527,0 36.318198,0 L 3.6503044,0 C 1.6353097,0 0,-1.6360658 0,-3.651992 z M 38.719538,-3.651992 38.719538,-36.328324 C 38.719538,-37.651172 37.640434,-38.730775 36.318198,-38.730775 L 3.6503044,-38.730775 C 2.326403,-38.730775 1.2489636,-37.651172 1.2489636,-36.328324 L 1.2489636,-3.651992 C 1.2489636,-2.3274785 2.326403,-1.2495411 3.6503044,-1.2495411 L 36.318198,-1.2495411 C 37.640434,-1.2495411 38.719538,-2.3274785 38.719538,-3.651992 z" id="path3193" style="fill:#000000;fill-opacity:1;fill-rule:evenodd;stroke:none"/><path d="M 6.2464835,-12.488747 C 6.2464835,-15.412673 10.078304,-17.493575 14.361417,-17.493575 15.670331,-17.493575 16.934282,-17.298647 18.058349,-16.947109 17.672003,-17.246999 17.297314,-17.585208 17.010885,-17.995058 16.589568,-18.591505 16.36642,-19.304577 16.419709,-20.190918 14.033356,-19.499505 11.265652,-20.599101 9.768561,-22.8716 8.0166813,-25.532289 8.5479072,-28.997683 11.157409,-30.533786 11.958411,-31.003613 12.844342,-31.226864 13.7386,-31.231863 L 22.481346,-31.233529 22.481346,-29.985654 17.408888,-29.985654 C 18.001729,-29.542483 18.529625,-28.992685 18.955938,-28.347922 20.659524,-25.758873 20.203236,-22.410103 17.775251,-20.815688 17.773585,-20.804026 17.77192,-20.79403 17.770255,-20.784033 17.533784,-19.769406 17.713635,-19.164628 18.031705,-18.714793 18.388075,-18.209979 18.950942,-17.831784 19.66868,-17.336966 20.905986,-16.485612 22.329805,-15.427667 22.414734,-13.115183 22.454701,-12.910258 22.47635,-12.700335 22.47635,-12.488747 22.47635,-9.5631543 18.642864,-7.483918 14.361417,-7.483918 10.056655,-7.483918 6.2464835,-9.5748167 6.2464835,-12.488747 z M 21.13413,-11.895631 C 21.114147,-11.97227 21.109151,-12.05224 21.120808,-12.133877 21.157444,-12.425436 21.174097,-12.695337 21.170766,-12.943579 20.761106,-14.65795 18.075002,-16.244034 14.361417,-16.244034 10.278138,-16.244034 7.4954472,-14.348064 7.4954472,-12.488747 7.4954472,-10.609437 10.31644,-8.7334591 14.361417,-8.7334591 18.008391,-8.7334591 20.621222,-10.246237 21.13413,-11.895631 z M 28.724499,-21.238866 28.724499,-24.984157 24.977608,-24.984157 24.977608,-26.235364 28.724499,-26.235364 28.724499,-29.983988 29.975128,-29.983988 29.975128,-26.235364 33.722019,-26.235364 33.722019,-24.984157 29.975128,-24.984157 29.975128,-21.238866 28.724499,-21.238866 z M 16.932617,-21.763673 C 18.816054,-22.869934 19.34728,-25.482308 17.911804,-27.659841 16.469667,-29.850703 13.701964,-30.580435 11.791882,-29.455848 9.9084449,-28.349588 9.3772191,-25.737214 10.812695,-23.55968 12.254831,-21.368818 15.022535,-20.639086 16.932617,-21.763673 z" id="path3195" style="fill:#000000;fill-opacity:1;fill-rule:evenodd;stroke:none"/></g></svg>