<?xml version="1.0" encoding="utf-8"?>
<!-- Generator: Adobe Illustrator 19.0.0, SVG Export Plug-In . SVG Version: 6.00 Build 0)  -->
<svg version="1.1" id="Layer_1" xmlns="http://www.w3.org/2000/svg" xmlns:xlink="http://www.w3.org/1999/xlink" x="0px" y="0px"
	 viewBox="0 0 301 198" style="enable-background:new 0 0 301 198;" xml:space="preserve">
<style type="text/css">
	.st0{fill:#C92027;}
	.st1{fill:#535353;}
</style>
<g id="XMLID_110_">
	<path id="XMLID_14_" class="st0" d="M47.7,5.7C24.9,5.7,6.4,24.2,6.4,47.1c0,22.8,18.5,41.3,41.3,41.3C70.5,88.4,89,69.9,89,47.1
		C89,24.2,70.5,5.7,47.7,5.7z M47.7,83.1c-19.9,0-36-16.1-36-36c0-19.9,16.1-36,36-36c19.9,0,36,16.1,36,36
		C83.7,66.9,67.6,83.1,47.7,83.1z"/>
	<path id="XMLID_7_" class="st0" d="M41.9,70.1h9.3V46.9h6.5l0.7-7.8h-7.2c0,0,0-2.9,0-4.4c0-1.8,0.4-2.6,2.1-2.6c1.4,0,5,0,5,0V24
		c0,0-5.3,0-6.4,0c-6.9,0-10,3-10,8.9c0,5.1,0,6.2,0,6.2H37V47h4.8V70.1z"/>
</g>
<g id="XMLID_111_">
	<path id="XMLID_50_" class="st0" d="M148.7,5.7c-22.8,0-41.3,18.5-41.3,41.3c0,22.8,18.5,41.3,41.3,41.3
		c22.8,0,41.3-18.5,41.3-41.3C190.1,24.2,171.5,5.7,148.7,5.7z M148.7,83.1c-19.9,0-36-16.1-36-36c0-19.9,16.1-36,36-36
		c19.9,0,36,16.1,36,36C184.7,66.9,168.6,83.1,148.7,83.1z"/>
	<path id="XMLID_4_" class="st0" d="M128.4,59.8c3.7,2.4,8.1,3.8,12.8,3.8c15.5,0,24.3-13.1,23.7-24.8c1.6-1.2,3-2.6,4.2-4.3
		c-1.5,0.7-3.1,1.1-4.8,1.3c1.7-1,3-2.7,3.7-4.6c-1.6,1-3.4,1.7-5.3,2c-1.5-1.6-3.7-2.6-6.1-2.6c-5.4,0-9.3,5-8.1,10.3
		c-6.9-0.3-13.1-3.7-17.2-8.7c-2.2,3.8-1.1,8.7,2.6,11.1c-1.4,0-2.7-0.4-3.8-1c-0.1,3.9,2.7,7.5,6.7,8.3c-1.2,0.3-2.5,0.4-3.8,0.1
		c1.1,3.3,4.1,5.7,7.8,5.8C137.2,59.1,132.8,60.4,128.4,59.8z"/>
</g>
<g id="XMLID_112_">
	<path id="XMLID_17_" class="st0" d="M252.3,5.7c-22.8,0-41.3,18.5-41.3,41.3c0,22.8,18.5,41.3,41.3,41.3
		c22.8,0,41.3-18.5,41.3-41.3C293.6,24.2,275.1,5.7,252.3,5.7z M252.3,83.1c-19.9,0-36-16.1-36-36c0-19.9,16.1-36,36-36
		c19.9,0,36,16.1,36,36C288.3,66.9,272.2,83.1,252.3,83.1z"/>
	<rect id="XMLID_3_" x="234.7" y="34.3" class="st0" width="7.9" height="25.5"/>
	<ellipse id="XMLID_2_" class="st0" cx="238.7" cy="47.1" rx="4.7" ry="4.7"/>
	<path id="XMLID_1_" class="st0" d="M255.3,46.8c0-3.6,1.7-5.7,4.8-5.7c2.9,0,4.3,2.1,4.3,5.7c0,3.7,0,13.4,0,13.4h7.9
		c0,0,0-9.3,0-16.2c0-6.8-3.9-10.1-9.3-10.1c-5.4,0-7.7,4.2-7.7,4.2v-3.4h-7.6v25.5h7.6C255.3,60.2,255.3,50.7,255.3,46.8z"/>
</g>
<g id="XMLID_109_">
	<path id="XMLID_26_" class="st1" d="M47.7,111.4c-22.8,0-41.3,18.5-41.3,41.3c0,22.8,18.5,41.3,41.3,41.3
		c22.8,0,41.3-18.5,41.3-41.3C89,129.9,70.5,111.4,47.7,111.4z M47.7,188.7c-19.9,0-36-16.1-36-36c0-19.9,16.1-36,36-36
		c19.9,0,36,16.1,36,36C83.7,172.6,67.6,188.7,47.7,188.7z"/>
	<path id="XMLID_25_" class="st1" d="M41.9,175.8h9.3v-23.3h6.5l0.7-7.8h-7.2c0,0,0-2.9,0-4.4c0-1.8,0.4-2.6,2.1-2.6c1.4,0,5,0,5,0
		v-8.1c0,0-5.3,0-6.4,0c-6.9,0-10,3-10,8.9c0,5.1,0,6.2,0,6.2H37v7.9h4.8V175.8z"/>
</g>
<g id="XMLID_108_">
	<path id="XMLID_22_" class="st1" d="M148.7,111.4c-22.8,0-41.3,18.5-41.3,41.3c0,22.8,18.5,41.3,41.3,41.3
		c22.8,0,41.3-18.5,41.3-41.3C190.1,129.9,171.5,111.4,148.7,111.4z M148.7,188.7c-19.9,0-36-16.1-36-36c0-19.9,16.1-36,36-36
		c19.9,0,36,16.1,36,36C184.7,172.6,168.6,188.7,148.7,188.7z"/>
	<path id="XMLID_21_" class="st1" d="M128.4,165.5c3.7,2.4,8.1,3.8,12.8,3.8c15.5,0,24.3-13.1,23.7-24.8c1.6-1.2,3-2.6,4.2-4.3
		c-1.5,0.7-3.1,1.1-4.8,1.3c1.7-1,3-2.7,3.7-4.6c-1.6,1-3.4,1.7-5.3,2c-1.5-1.6-3.7-2.6-6.1-2.6c-5.4,0-9.3,5-8.1,10.3
		c-6.9-0.3-13.1-3.7-17.2-8.7c-2.2,3.8-1.1,8.7,2.6,11.1c-1.4,0-2.7-0.4-3.8-1c-0.1,3.9,2.7,7.5,6.7,8.3c-1.2,0.3-2.5,0.4-3.8,0.1
		c1.1,3.3,4.1,5.7,7.8,5.8C137.2,164.8,132.8,166,128.4,165.5z"/>
</g>
<g id="XMLID_107_">
	<path id="XMLID_18_" class="st1" d="M252.3,111.4c-22.8,0-41.3,18.5-41.3,41.3c0,22.8,18.5,41.3,41.3,41.3
		c22.8,0,41.3-18.5,41.3-41.3C293.6,129.9,275.1,111.4,252.3,111.4z M252.3,188.7c-19.9,0-36-16.1-36-36c0-19.9,16.1-36,36-36
		c19.9,0,36,16.1,36,36C288.3,172.6,272.2,188.7,252.3,188.7z"/>
	<rect id="XMLID_16_" x="234.7" y="140" class="st1" width="7.9" height="25.5"/>
	<ellipse id="XMLID_15_" class="st1" cx="238.7" cy="152.7" rx="4.7" ry="4.7"/>
	<path id="XMLID_13_" class="st1" d="M255.3,152.5c0-3.6,1.7-5.7,4.8-5.7c2.9,0,4.3,2.1,4.3,5.7c0,3.7,0,13.4,0,13.4h7.9
		c0,0,0-9.3,0-16.2c0-6.8-3.9-10.1-9.3-10.1c-5.4,0-7.7,4.2-7.7,4.2v-3.4h-7.6v25.5h7.6C255.3,165.9,255.3,156.4,255.3,152.5z"/>
</g>
</svg>
